<svg xmlns="http://www.w3.org/2000/svg" xmlns:xlink="http://www.w3.org/1999/xlink" viewBox="0 0 400 300" data-imageid="online-presentation-isometric" imageName="Online Presentation" class="illustrations_image" style="width: 166px;"><defs><linearGradient id="linear-gradient" x1="194.77" y1="179.12" x2="175.17" y2="190.83" gradientUnits="userSpaceOnUse"><stop offset="0" stop-color="gray"/><stop offset="1" stop-color="#fff"/></linearGradient><linearGradient id="linear-gradient-2" x1="133.25" y1="215.47" x2="106.63" y2="231.38" xlink:href="#linear-gradient"/><linearGradient id="linear-gradient-3" x1="190.36" y1="248.3" x2="163.74" y2="264.2" xlink:href="#linear-gradient"/><linearGradient id="linear-gradient-4" x1="275.54" y1="141.43" x2="275.17" y2="142.02" gradientUnits="userSpaceOnUse"><stop offset="0" stop-color="#fff" stop-opacity="0"/><stop offset="1" stop-color="#d4ffff"/></linearGradient><linearGradient id="linear-gradient-5" x1="275.54" y1="146.49" x2="275.17" y2="147.09" xlink:href="#linear-gradient-4"/><linearGradient id="linear-gradient-6" x1="275.54" y1="151.95" x2="275.17" y2="152.54" xlink:href="#linear-gradient-4"/><linearGradient id="linear-gradient-7" x1="301.45" y1="132.01" x2="286.77" y2="155.69" xlink:href="#linear-gradient-4"/><linearGradient id="linear-gradient-8" x1="217.22" y1="51.67" x2="216.72" y2="52.47" xlink:href="#linear-gradient-4"/><linearGradient id="linear-gradient-9" x1="242.4" y1="137.75" x2="218.74" y2="175.91" xlink:href="#linear-gradient-4"/><linearGradient id="linear-gradient-10" x1="117.75" y1="153.12" x2="118.85" y2="153.12" xlink:href="#linear-gradient-4"/></defs><title>a</title><g style="isolation:isolate"><g id="Layer_2" data-name="Layer 2"><path d="M329.09,221.18,223.2,282.31a17.4,17.4,0,0,1-17.4,0L59.4,197.79a7,7,0,0,1,0-12.19L168.1,122.52a9.13,9.13,0,0,1,9.15,0l151.84,87.66A6.35,6.35,0,0,1,329.09,221.18Z" fill="#0dd280"/><path d="M189.83,172.11c-7.66,4.47-13.13,7.47-24.91,14.19,8.91,5.42,15.82,10.4,16.83,11l26.47-15.54C206.16,180.67,199.36,176.82,189.83,172.11Z" fill="url(#linear-gradient)" style="mix-blend-mode:multiply"/><path d="M114.11,229c3.33,1.91,6.52,4.07,9.7,6.24L151.46,219c-2.79-1.47-12-6.7-25-13.1-8.57,5-15.14,8.65-26.12,14.89C104.59,224,109.49,226.31,114.11,229Z" fill="url(#linear-gradient-2)" style="mix-blend-mode:multiply"/><path d="M171.44,262.81c3,2,6.2,3.51,9.21,5.37l27.92-16.39c-2.79-1.47-12-6.7-25-13.1-8.64,5-15.25,8.72-26.41,15.05C162.27,256.22,166.77,259.64,171.44,262.81Z" fill="url(#linear-gradient-3)" style="mix-blend-mode:multiply"/><path d="M243.23,115.17l-31,29.87a1.1,1.1,0,0,0,1.53,1.59l31-29.87A1.1,1.1,0,0,0,243.23,115.17Z" fill="#4079a0"/><path d="M235.82,124.75l9.08,42.11a1.1,1.1,0,0,0,2.16-.47L238,124.29A1.1,1.1,0,0,0,235.82,124.75Z" fill="#4079a0"/><path d="M233.59,115.88l-1.82,43a1.1,1.1,0,0,0,2.2.09l1.82-43A1.1,1.1,0,0,0,233.59,115.88Z" fill="#4079a0"/><polygon points="184.44 21.78 184.44 108.57 314.07 181.87 314.07 99.16 184.44 21.78" fill="#68e1fd" class="target-color"/><polygon points="184 79.17 184 99.11 184.37 99.27 190.04 88.99 193.32 83.7 184 79.17" fill="#4be2c5"/><path d="M197.57,97.38l-3.6-4a5.35,5.35,0,0,1-.78-.87,3.87,3.87,0,0,1-.24-1.69,10.83,10.83,0,0,0-.47-2.43,1,1,0,0,0-1.93.26c0,.51,0,1,.05,1.53l-.88-.78c-1.19,2.15-2.4,4.28-3.69,6.37.71,0,1.43.05,2.14,0a25.56,25.56,0,0,1,6.74,5.82.92.92,0,0,0,1.55-.32,1.34,1.34,0,0,0,.3-.1l0,0a1,1,0,0,0,.35-1.34l0,0a.81.81,0,0,0-.48-.47c-.2-.23-.39-.46-.58-.71l.12.13C197,99.71,198.41,98.31,197.57,97.38Z" fill="#ff666d"/><path d="M190.22,94.31a4.19,4.19,0,0,1-.74-1.87,3.05,3.05,0,0,1,.72-1.82c.17-.24-.22-.46-.39-.23a3.44,3.44,0,0,0-.79,2,4.61,4.61,0,0,0,.81,2.09A.22.22,0,0,0,190.22,94.31Z" fill="#007058"/><path d="M253.88,91.93c-.56.14-1.11.28-1.66.44A1.91,1.91,0,0,0,253,91.2a.85.85,0,0,0-1.23-.94q-2.23,1.13-4.49,2.22c0-.11.06-.22.08-.34a5.29,5.29,0,0,0,.26-2.16c-.32-1.26-1.46-.56-1.93.43-.63,1.33-.77,2.76-2,3.81a6,6,0,0,1-2.33.94c-.84.24-1.68.47-2.53.68a.84.84,0,0,0,0,1.6.81.81,0,0,0,.07,1.41c-.37.6.06,1.59.86,1.26a32.44,32.44,0,0,1,6.11-1.8q3.08-.17,6.15-.52c1-.12,1.08-1.76,0-1.67h-.16l1.84-.31c.92-.16.71-1.76-.22-1.64l-.22,0h0l-.61.09.88-.29c.54-.18,1-.31,1.32-.86A.85.85,0,0,0,253.88,91.93Z" fill="#ff666d"/><path d="M247.25,93.34a.19.19,0,0,0-.36.1,2.89,2.89,0,0,1-.89,3c-.18.16.08.42.26.26A3.27,3.27,0,0,0,247.25,93.34Z" fill="#007058"/><path d="M252.34,92.09q-2,.54-4,1.23c-.22.08-.13.44.1.36q2-.7,4-1.23A.19.19,0,0,0,252.34,92.09Z" fill="#007058"/><path d="M253.27,94l-4.26.65c-.23,0-.14.39.1.36l4.26-.65C253.61,94.3,253.51,93.94,253.27,94Z" fill="#007058"/><path d="M252.51,95.87q-1.72.11-3.44.16c-.24,0-.24.38,0,.37q1.72,0,3.44-.16C252.75,96.23,252.75,95.86,252.51,95.87Z" fill="#007058"/><path d="M215.67,126.34l2-14.13s-7.25-7.18-8.94-5.14c0,0-1.73,7-3.52,14.68Q210.44,124,215.67,126.34Z" fill="#ff666d"/><path d="M225.62,130.9c-.86-5.39-1.91-11-3.34-17.06l-8.61-.91c.14,4.25.32,8.5.52,12.75Q219.94,128.23,225.62,130.9Z" fill="#ff666d"/><path d="M242.14,91.39c-4.55,1.73-10,3.3-13.66,2.81a64.54,64.54,0,0,1-13.65-3.39c-.6-.2-7.07-2.68-9.46-.54s-1.75,9.08-1.75,9.08l-8.73-7.56c-3.25,1.16-4.52,4.51-4.83,7.84l.33.34q.94,1.11,1.9,2.19c2.87,3.21,6.15,6.93,10.36,8.33a7.49,7.49,0,0,0,5-.31c1.25-.47,3.08-2,4.44-1.49.35.13.68.39,1.05.34,1-.12,2.35-1.73,3.3-2.22,2.62-1.36,5.69-1.57,8.59-1.71a62.7,62.7,0,0,0,9.39-1c.91-.18,10.58-2.66,10.78-2.25A33.63,33.63,0,0,1,242.14,91.39Z" fill="#ffc963"/><path d="M208.1,84.91c-.64,3-.1,7.22,3.14,7.7,4.18.62,5.22-2.22,5-5.72-.18-2.78-1.62-7.12-5.37-5.87a3.86,3.86,0,0,0-2.1,1.93A7.76,7.76,0,0,0,208.1,84.91Z" fill="#ff666d"/><path d="M207.86,85.58a4.81,4.81,0,0,1-2.59-4.64c.18-1.86,2-4.23,4.07-3.35,1.42.6,1,.65,1,.65a2.93,2.93,0,0,1,2.75-1c2,.17,2.32,1.38,2.32,1.38s2.25.75,2.84,2.18c.68,1.64-.86,6.52-1.59,7.88s-1.16-1.41-1.42-2.53a2.78,2.78,0,0,0-1.66-2c-1.22-.33-1.82.75-2.79,1.21A3.47,3.47,0,0,1,207.86,85.58Z" fill="#007058"/><path d="M215.74,115a17.61,17.61,0,0,0,6.55-1.19l.44-13.87L206,107.81s.63,3.36,1.34,6.43A23.94,23.94,0,0,0,215.74,115Z" fill="#ffc963"/><path d="M198.36,243.28c-.43,0-1.76-.1-2.26-.1a10.51,10.51,0,0,1-5.3,1.79,9.34,9.34,0,0,1-6.56-1.49l-.39,3.52c-.22,2.7,3.32,2.17,4.65,2.11a39.57,39.57,0,0,0,7.72-1.18c1-.25,4.23-.76,4.42-2.42S200.29,243.5,198.36,243.28Z" fill="#007058"/><path d="M192.25,233.58s-2.06,9.52-1.09,9.49,7.21.21,7.21.21a7.75,7.75,0,0,1-6.12,4.3c-4.67.68-8-4.09-8-4.09l1.85-11.88" fill="#ff666d"/><path d="M183.46,229.17l-1.39,7.58s2.18,2.24,9.52,2,0-13.4,0-13.4" fill="#edbab9"/><path d="M179.17,210.84s8.19-6.57,13.62-7.34,8.27,5.12,7.88,9.07-13.4,6.11-13.4,6.11" fill="#edbab9"/><path d="M206,248.95c-.43,0-1.76-.1-2.26-.1a10.51,10.51,0,0,1-5.3,1.79,9.34,9.34,0,0,1-6.56-1.49l-.39,3.52c-.22,2.7,3.32,2.17,4.65,2.11a39.57,39.57,0,0,0,7.72-1.18c1-.25,4.23-.76,4.42-2.42S207.92,249.17,206,248.95Z" fill="#007058"/><path d="M199.87,239.25s-2.06,9.52-1.09,9.49,7.21.21,7.21.21a7.75,7.75,0,0,1-6.12,4.3c-4.67.68-8-4.09-8-4.09l1.85-11.88" fill="#ff666d"/><path d="M179.69,211.14s8.19-6.57,13.62-7.34,8.27,5.12,7.88,9.07S187.8,219,187.8,219" fill="#edbab9"/><path d="M184.06,213.33c1.06-1,15-7.47,19.85-4.51s4.59,5.15,4,8.76-5.35,23-5.35,23a17.67,17.67,0,0,1-11.11.53l1.37-14.43-18.51-10.11" fill="#ffe0de"/><polygon points="184.17 211.83 188.55 215.12 207.29 205.49 194.76 196.58 177.22 206.53 184.17 211.83" fill="#007058"/><path d="M137.83,208.36l-1.09,5.06a23.62,23.62,0,0,1,4.43-.46c1.14.15,2.58,2.17,1.17,3.54s-3.83,1.24-6.25,1.8-2.79.68-4.34.25S130,216,130,216l1.21-8.83" fill="#ff666d"/><path d="M129.83,203.42,128.44,211s2.18,2.24,9.52,2,0-13.4,0-13.4" fill="#edbab9"/><ellipse cx="120.3" cy="221.09" rx="10.45" ry="3.88" fill="#008074"/><polyline points="118.54 203.73 118.95 219.35 122.06 219.35 122.06 203.73" fill="#008074"/><path d="M146.36,212.51l-1.09,5.06a23.62,23.62,0,0,1,4.43-.46c1.14.15,2.58,2.17,1.17,3.54s-3.83,1.24-6.25,1.8-2.79.68-4.34.25-1.78-2.54-1.78-2.54l1.21-8.83" fill="#ff666d"/><path d="M141.32,168.75c-.9,3-2.26,6.2-5.1,7.85-3,1.76-6.79,1.28-10,.56-.64-.14-.92.85-.27,1,3.54.77,7.56,1.23,10.84-.67,3.07-1.78,4.59-5.21,5.57-8.46A.51.51,0,0,0,141.32,168.75Z" fill="#008074"/><path d="M140.39,181.19q-4.69,1-9.46,1.59a.53.53,0,0,0-.36.2q-.55-1.65-.93-3.35c-.15-.65-1.14-.37-1,.27a35.81,35.81,0,0,0,2.59,7.48c.28.6,1.17.08.89-.52-.47-1-.89-2-1.26-3h.07q4.91-.57,9.74-1.62C141.31,182,141,181,140.39,181.19Z" fill="#008074"/><path d="M131.94,188.43a13.81,13.81,0,0,1-3.17,3.64c-.51.42.22,1.14.73.73a14.6,14.6,0,0,0,3.33-3.84A.51.51,0,0,0,131.94,188.43Z" fill="#008074"/><path d="M125.54,185.09s8.19-6.57,13.62-7.34,8.27,5.12,7.88,9.07-13.4,6.11-13.4,6.11" fill="#edbab9"/><path d="M129.9,187.28c1.06-1,15-7.47,19.85-4.51s4.59,5.15,4,8.76-5.35,23-5.35,23a17.67,17.67,0,0,1-11.11.53l1.37-14.43-18.51-10.11" fill="#ffe0de"/><path d="M119.77,164.06c.74.54,7.08,1.3,8.4,4.23s3.34,18,3.34,18-3.81,5.67-10.4,3.65c-2-.6-12.1-19.14-12.37-21.06C108,163.87,119.77,164.06,119.77,164.06Z" fill="#4be2c5"/><path d="M107.26,196.63a16.6,16.6,0,0,1-.79-2.35c-1.55-6.1-2.58-29,7.72-28.06,11.29,1,7.47,29.3,18.92,28.43s16.13,2.11,11.45,6.54C135.21,210.06,113,210.26,107.26,196.63Z" fill="#ff666d"/><path d="M122.19,154.31c.09.54,1.05,8.25-1.24,10s-7.4-2.36-7.53-4.4-1.86-6.27.32-7.34S121.58,150.5,122.19,154.31Z" fill="#ff666d"/><path d="M122.19,154.31s1.91-1.48,2.25-2.82-1.31-2.3-2.93-2.3-3,.41-4.36-.41a4.94,4.94,0,0,0-4.88,0c-1.31.89-1.53,3-2.41,4.14s-2.56,1.22-2.52,3.29,3.07,2.27,3.28,3.64,1,3.39,2.81,3.74,4.4.39,4.61.11-1.17-4.88.11-5.19S122.28,157.57,122.19,154.31Z" fill="#008074"/><path d="M148.37,153a3.74,3.74,0,0,0-.93-2.44.62.62,0,0,0-.21-.15c-.08-.85-.3-1.68-1-2a.64.64,0,0,0-.37,0,.57.57,0,0,0-.67.59l0,.91a1,1,0,0,0-.42-.48.79.79,0,0,0-.78,0,.54.54,0,0,0-.46.58l.15,3.86c-.19-.71-.61-2.13-1.64-1.39-.81.58-.22,2.17-.09,2.92a29.69,29.69,0,0,0,1.07,4.49.61.61,0,0,0,.21.3q-.05.23-.12.46c-.26,1-.54,2.37-1.31,3-.6.52.27,1.39.87.87l.08-.08v0c-.2.66.82,1.11,1.13.48l.12-.24a.74.74,0,0,0,.19.14c-.05.13-.1.26-.14.39-.24.76.95,1.08,1.19.33v0a.57.57,0,0,0,1,0c.14-.3.1.72.23.41.31.13-.34-1-.14-1.37.77-1.46,2.68-2.92,2.63-7.64C149,155.83,149.94,153.52,148.37,153Z" fill="#ff666d"/><path d="M143.95,150.2c0-.26-.42-.27-.41,0q.12,2.46.33,4.91c0,.26.43.26.41,0Q144.06,152.65,143.95,150.2Z" fill="#c1444d"/><path d="M145.56,149a.21.21,0,0,0-.41,0l.16,6.61a.21.21,0,0,0,.41,0Z" fill="#c1444d"/><path d="M147,150.76l-.12,5a.21.21,0,0,0,.41,0l.12-5A.21.21,0,0,0,147,150.76Z" fill="#c1444d"/><path d="M148.24,153.15q-.09,1.87-.33,3.72c0,.26.38.26.41,0q.24-1.86.33-3.72C148.67,152.88,148.26,152.89,148.24,153.15Z" fill="#c1444d"/><path d="M125.64,166.05s6.25,2.28,7.87,2.14,8.45-8.85,8.45-8.85,4.73,1.31,6.27,5.52c0,0-8.81,12.62-12.66,13.38s-8.56-1.13-8.56-1.13" fill="#4be2c5"/><path d="M165.46,201.09s-.29-11,4.73-11.22,11.6,3.44,12,9.27,1.35,16.76,1.35,18.81-3.68,9.61-3.68,9.61" fill="#4be2c5"/><path d="M198.05,201.27l.09-.05a.72.72,0,0,0-.73-1.24l-.17.1a.73.73,0,0,0-1.07-.64c-.83.41-1.65.82-2.46,1.26l.31-.38c.47-.59-.12-1.6-.87-1.13q-1.48.93-2.91,1.93a.76.76,0,0,0-.15,1.09l-.15.12a.78.78,0,0,0-.21,1,.81.81,0,0,0,.07.66c-.45.33-.19,1,.29,1.18l.06.07-.85.3c-.87.3-.49,1.7.38,1.39l4.37-1.53a6.81,6.81,0,0,0,3.08-1.66.7.7,0,0,0,.12-.79,4.56,4.56,0,0,0,.88-.6A.64.64,0,0,0,198.05,201.27Z" fill="#ff666d"/><path d="M180.2,204s7.85-3.19,10.19-3.88c0,0,2.42,1.7,1.75,6.17,0,0-7.08,7.23-11.47,9.41" fill="#4be2c5"/><path d="M174.08,188.29a.75.75,0,0,0-.05-1,2.93,2.93,0,0,0-1.23-1,1.09,1.09,0,0,0-1.39.79,1.84,1.84,0,0,0,2.17,2,.74.74,0,0,0,.5-.89Z" fill="#ff666d"/><ellipse cx="175.23" cy="249.94" rx="10.45" ry="3.88" fill="#008074"/><polyline points="173.47 232.59 173.87 248.2 176.99 248.2 176.99 232.59" fill="#008074"/><path d="M160.93,223.79a16.6,16.6,0,0,1-.79-2.35c-1.55-6.1-2.58-29,7.72-28.06,11.29,1,7.47,29.3,18.92,28.43s16.13,2.11,11.45,6.54C188.88,237.22,166.67,237.42,160.93,223.79Z" fill="#ff666d"/><path d="M175.72,180.06s3.76,7.93,1.29,10.26c-1.75,1.65-5.21,1.54-7-1.49S172.32,178.61,175.72,180.06Z" fill="#ff666d"/><path d="M172.06,187.63a11.55,11.55,0,0,0,3.67-7c.4-4.23-8.95-2.74-10.48,1.37s.73,10.06,7,9.22Z" fill="#007058"/><path d="M167.71,188.13c-.64.55-17,17.3-8.54,22.91,7.1,4.68,9.81-19.85,9.8-21.73" fill="#007058"/><ellipse cx="277.67" cy="115.1" rx="11.45" ry="21.85" transform="matrix(0.99, -0.13, 0.13, 0.99, -12.54, 36.84)" fill="#e6e6e6"/><path d="M277.67,115.1V93.69s7,2.1,10.45,15.19Z" fill="#ffc963"/><path d="M277.67,115.1l11.58,6.82s.75-7.59-1.13-13Z" fill="#4be2c5"/><line x1="263.83" y1="135.06" x2="287.16" y2="147.94" fill="url(#linear-gradient-4)"/><path d="M263.45,135.71l23.33,12.88c.85.47,1.6-.83.76-1.3l-23.33-12.88c-.85-.47-1.6.83-.76,1.3Z" fill="#f2f2f2"/><line x1="263.83" y1="140.12" x2="287.16" y2="153.01" fill="url(#linear-gradient-5)"/><path d="M263.45,140.77l23.33,12.88c.85.47,1.6-.83.76-1.3l-23.33-12.88c-.85-.47-1.6.83-.76,1.3Z" fill="#f2f2f2"/><line x1="263.83" y1="145.58" x2="287.16" y2="158.46" fill="url(#linear-gradient-6)"/><path d="M263.45,146.22l23.33,12.88c.85.47,1.6-.83.76-1.3l-23.33-12.88c-.85-.47-1.6.83-.76,1.3Z" fill="#f2f2f2"/><polygon points="297.19 101.94 297.19 164.85 302.26 167.65 302.26 105.13 297.19 101.94" stroke="#f2f2f2" stroke-miterlimit="10" stroke-width="0.5" fill="url(#linear-gradient-7)"/><line x1="190.52" y1="36.32" x2="243.79" y2="67.22" fill="url(#linear-gradient-8)"/><path d="M190.14,37l53.27,30.9a.75.75,0,0,0,.76-1.3L190.9,35.67a.75.75,0,0,0-.76,1.3Z" fill="#f2f2f2"/><polyline points="180.43 172.8 180.43 178.61 197.48 188.13 212.2 178.61 212.2 172.8" fill="#4079a0"/><polygon points="180.43 172.8 195 163.14 212.2 172.8 197.19 182.77 180.43 172.8" fill="#5096bc"/><path d="M190.46,171.32s2.23-5.06,6.28-4.69,5.89,2.54,6.26,6.33a8.88,8.88,0,0,1-5,2.5C194.63,176.1,189.51,172.95,190.46,171.32Z" fill="#fff"/><path d="M314.73,140,190.11,61.12l-5.67,47.45,12.3,58.05,5.39,3.12,111.94,12.12.67.18Z" fill="url(#linear-gradient-9)"/><circle cx="194.72" cy="171.07" r="1.43" fill="#4079a0"/><path d="M117.75,153v.25a.55.55,0,0,0,1.1,0V153A.55.55,0,0,0,117.75,153Z" fill="url(#linear-gradient-10)"/><path d="M96.68,78.56V100a2.52,2.52,0,0,0,3.78,2.18L119,91.47a2.52,2.52,0,0,0,1.26-2.18V67.89a2.52,2.52,0,0,0-3.78-2.19L97.94,76.37A2.52,2.52,0,0,0,96.68,78.56Z" fill="#68e1fd" class="target-color"/><path d="M69.72,93.12v21.45a2.52,2.52,0,0,0,3.78,2.18L92.09,106a2.52,2.52,0,0,0,1.26-2.18V82.45a2.52,2.52,0,0,0-3.78-2.19L71,90.93A2.52,2.52,0,0,0,69.72,93.12Z" fill="#68e1fd" class="target-color"/><path d="M69.72,93.12v21.45a2.52,2.52,0,0,0,3.78,2.18L92.09,106a2.52,2.52,0,0,0,1.26-2.18V82.45a2.52,2.52,0,0,0-3.78-2.19L71,90.93A2.52,2.52,0,0,0,69.72,93.12Z" fill="#68e1fd" class="target-color"/><path d="M96.68,109.73v21.45a2.52,2.52,0,0,0,3.78,2.18L119,122.63a2.52,2.52,0,0,0,1.26-2.18V99.06a2.52,2.52,0,0,0-3.78-2.19L97.94,107.54A2.52,2.52,0,0,0,96.68,109.73Z" fill="#68e1fd" class="target-color"/><path d="M69.72,93.12v21.45a2.52,2.52,0,0,0,3.78,2.18L92.09,106a2.52,2.52,0,0,0,1.26-2.18V82.45a2.52,2.52,0,0,0-3.78-2.19L71,90.93A2.52,2.52,0,0,0,69.72,93.12Z" opacity="0.14"/><path d="M69.72,124.15V145.6a2.52,2.52,0,0,0,3.78,2.18l18.58-10.73a2.52,2.52,0,0,0,1.26-2.18V113.48a2.52,2.52,0,0,0-3.78-2.19L71,122A2.52,2.52,0,0,0,69.72,124.15Z" fill="#68e1fd" class="target-color"/><path d="M96.68,109.73v21.45a2.52,2.52,0,0,0,3.78,2.18L119,122.63a2.52,2.52,0,0,0,1.26-2.18V99.06a2.52,2.52,0,0,0-3.78-2.19L97.94,107.54A2.52,2.52,0,0,0,96.68,109.73Z" opacity="0.14"/></g></g></svg>